<?xml version="1.0" standalone="no"?>
<!DOCTYPE svg PUBLIC "-//W3C//DTD SVG 20010904//EN"
 "http://www.w3.org/TR/2001/REC-SVG-20010904/DTD/svg10.dtd">
<svg version="1.0" xmlns="http://www.w3.org/2000/svg"
 width="4500.000000pt" height="4500.000000pt" viewBox="0 0 4500.000000 4500.000000"
 preserveAspectRatio="xMidYMid meet">

<g transform="translate(0.000000,4500.000000) scale(0.100000,-0.100000)"
fill="#000000" stroke="none">
<path d="M2933 42966 c-519 -370 -945 -675 -948 -678 -4 -3 -26 -180 -51 -394
-36 -313 -42 -390 -32 -400 7 -7 196 -176 420 -376 l407 -363 242 -63 c134
-34 249 -68 255 -75 6 -6 384 -561 840 -1232 455 -671 1155 -1703 1556 -2293
401 -590 731 -1079 734 -1086 3 -7 -51 -56 -128 -116 -932 -732 -1715 -1562
-2283 -2420 -174 -262 -299 -474 -399 -680 l-76 -155 94 -285 93 -284 653
-543 653 -542 107 162 c395 599 964 1230 1515 1682 288 236 607 454 926 633
l57 32 1178 -1572 c1121 -1495 1179 -1570 1182 -1536 3 34 -64 126 -1152 1577
-636 848 -1156 1545 -1156 1549 0 10 222 118 335 163 44 17 260 91 480 164
220 73 435 147 478 165 66 27 81 30 91 19 7 -8 217 -286 467 -618 l454 -605 3
252 2 252 293 0 c291 0 597 16 597 31 0 5 -98 145 -218 311 -120 167 -325 453
-456 636 l-239 332 104 108 c237 245 347 419 519 822 101 237 207 453 220 448
5 -2 388 -547 850 -1213 463 -665 843 -1211 845 -1213 2 -2 15 -2 30 0 25 3
-21 71 -823 1224 -468 672 -856 1230 -863 1242 -12 18 -5 29 73 119 108 124
333 343 463 452 707 590 1688 1097 2552 1320 136 35 187 52 186 62 -2 8 -55
151 -118 318 -63 167 -115 309 -115 317 0 9 -1032 1205 -1119 1296 -15 16 -28
13 -201 -46 -1006 -340 -2519 -1173 -4002 -2202 -116 -80 -211 -144 -213 -142
-1 1 -729 973 -1616 2158 l-1613 2155 -7 65 c-4 36 -10 233 -14 437 l-8 373
-254 372 c-141 205 -263 380 -272 389 -9 10 -143 48 -323 93 -169 42 -309 76
-310 75 -2 0 -427 -303 -945 -673z m1268 544 c150 -38 275 -73 279 -77 18 -20
471 -685 473 -695 1 -6 -48 -20 -118 -33 -155 -29 -375 -86 -522 -136 -65 -21
-120 -36 -124 -31 -4 4 -64 232 -134 507 -69 275 -128 508 -131 518 -3 9 -3
17 0 17 3 0 128 -31 277 -70z m-200 -460 c66 -267 121 -489 122 -494 2 -11
-62 -48 -315 -182 -109 -58 -237 -128 -285 -156 -49 -28 -152 -87 -231 -131
l-143 -80 -537 138 c-295 75 -538 138 -539 139 -3 3 904 655 1412 1014 308
219 381 267 387 253 4 -9 62 -234 129 -501z m996 -772 c5 -222 9 -404 9 -404
-1 -1 -41 5 -91 13 -64 10 -143 13 -275 9 -197 -5 -260 -15 -411 -66 -428
-143 -803 -552 -989 -1080 -13 -36 -24 -66 -25 -67 -2 -3 -446 115 -451 120
-2 2 1 53 6 113 21 222 76 421 169 620 179 378 469 618 1018 840 324 130 878
299 994 303 l36 1 10 -402z m-2415 -179 c304 -77 560 -141 569 -142 11 -1 -4
-24 -48 -75 -207 -237 -344 -571 -383 -932 -6 -58 -12 -105 -13 -106 -2 -1
-356 313 -707 626 l-61 55 40 348 c23 192 41 352 41 358 0 5 2 9 5 9 2 0 253
-63 557 -141z m10568 -2765 c524 -603 594 -684 589 -688 -2 -1 -40 -15 -84
-30 -135 -47 -479 -183 -695 -276 -993 -425 -1887 -974 -2545 -1562 -199 -178
-325 -313 -441 -473 -181 -248 -480 -592 -710 -815 -558 -540 -1069 -892
-1812 -1245 -486 -230 -624 -304 -847 -450 -516 -339 -1024 -849 -1740 -1745
-126 -159 -234 -289 -238 -290 -6 -1 -836 668 -1074 865 l-24 20 55 113 c155
315 403 708 686 1087 103 139 330 424 375 471 5 6 33 37 60 70 28 32 75 85
105 118 505 553 950 963 1535 1415 568 439 738 573 1300 1021 841 671 1136
892 1582 1187 594 394 1361 807 2258 1218 196 89 576 258 805 358 357 155 384
166 390 166 3 0 214 -241 470 -535z m723 -972 c49 -130 99 -265 112 -298 l23
-61 -126 -33 c-169 -43 -468 -143 -672 -223 -988 -388 -1896 -992 -2404 -1599
-93 -111 -153 -217 -284 -508 -238 -527 -393 -782 -553 -908 -34 -26 -100 -80
-147 -121 -304 -258 -589 -438 -867 -549 -55 -22 -188 -68 -295 -102 -602
-191 -752 -246 -960 -347 -63 -31 -122 -58 -130 -59 -8 -2 -19 -9 -25 -16 -5
-7 -57 -40 -114 -72 -474 -263 -955 -647 -1471 -1173 -388 -393 -695 -764
-925 -1116 -38 -59 -72 -107 -75 -106 -3 0 -72 144 -153 321 l-148 320 62 82
c638 831 1219 1450 1706 1819 234 177 435 296 790 468 799 388 1034 523 1448
834 485 364 1068 964 1421 1461 68 96 198 227 404 408 722 633 1710 1213 2800
1643 194 77 459 172 480 172 11 1 41 -70 103 -237z m-9774 -6249 l514 -418
114 -245 c145 -311 154 -332 143 -325 -5 3 -269 222 -587 485 l-578 480 -21
58 c-12 31 -46 135 -77 229 -41 129 -51 170 -38 163 9 -5 247 -198 530 -427z"/>
<path d="M10656 38708 c-3 -62 -7 -227 -9 -365 -2 -218 0 -254 13 -259 110
-44 796 -272 801 -267 10 10 -42 826 -52 833 -5 3 -75 21 -156 39 -81 18 -246
55 -365 82 -120 27 -219 49 -222 49 -2 0 -7 -51 -10 -112z m614 -51 l95 -23
-75 -55 c-41 -30 -90 -65 -107 -78 l-33 -22 0 100 c0 74 3 101 13 101 6 -1 55
-11 107 -23z m140 -358 c10 -167 21 -332 24 -367 l5 -63 -64 80 -65 80 0 264
0 264 38 25 c20 14 38 24 40 23 2 -2 12 -139 22 -306z m-448 42 c-20 -15 -43
-30 -49 -35 -10 -5 -13 15 -13 90 l0 97 50 -63 50 -62 -38 -27z m434 -478 c-1
-2 -50 13 -109 33 l-107 36 0 104 0 105 109 -138 c61 -75 109 -139 107 -140z"/>
<path d="M7456 36563 c-3 -93 -9 -357 -12 -588 l-6 -420 638 -219 c352 -120
650 -221 663 -224 24 -5 24 -4 18 54 -3 32 -23 334 -43 669 -20 336 -40 614
-44 618 -6 7 -1177 277 -1200 277 -4 0 -10 -75 -14 -167z m1062 -95 c56 -13
102 -25 102 -28 0 -3 -60 -48 -132 -100 -73 -52 -156 -112 -185 -133 l-53 -38
0 179 0 180 83 -19 c45 -10 128 -29 185 -41z m173 -665 c21 -334 38 -614 39
-622 0 -7 -52 51 -115 130 l-115 144 0 427 0 428 73 54 c39 29 74 52 76 50 2
-1 21 -277 42 -611z m-747 297 c59 -73 73 -97 63 -106 -6 -6 -47 -37 -89 -68
l-78 -57 0 178 c0 154 2 175 14 163 8 -8 49 -58 90 -110z m556 -695 c101 -126
188 -236 193 -243 5 -7 -53 10 -129 36 -77 27 -169 59 -206 71 l-68 23 0 186
c0 158 2 184 14 172 7 -8 96 -118 196 -245z"/>
<path d="M4940 34132 c0 -93 -3 -256 -7 -364 l-6 -194 409 -141 c225 -78 412
-138 415 -134 4 3 -5 193 -20 421 l-26 415 -360 82 c-198 45 -370 82 -382 83
-23 0 -23 0 -23 -168z m707 -15 c1 -2 -45 -38 -102 -80 l-105 -77 0 104 0 104
102 -24 c56 -14 103 -26 105 -27z m37 -94 c3 -38 13 -185 21 -328 8 -143 17
-279 20 -303 l5 -44 -65 83 -65 82 0 261 0 261 32 27 c18 15 36 28 39 28 4 0
10 -30 13 -67z m-436 -119 c32 -39 39 -54 29 -61 -6 -5 -29 -22 -49 -38 l-38
-27 0 98 c0 54 4 94 8 89 5 -6 27 -33 50 -61z m442 -559 c0 -2 -49 13 -110 33
l-110 36 0 104 0 104 110 -137 c61 -76 110 -139 110 -140z"/>
<path d="M41360 43561 l-304 -77 -262 -382 -262 -382 -6 -72 c-3 -40 -9 -236
-12 -436 l-7 -362 -1614 -2158 c-889 -1186 -1619 -2161 -1623 -2165 -4 -5 -70
35 -146 89 -196 138 -719 486 -979 651 -1065 677 -2005 1179 -2765 1478 -165
65 -458 169 -501 177 -11 2 -207 -216 -581 -645 -311 -356 -565 -653 -565
-660 0 -6 -53 -151 -117 -321 -64 -170 -116 -314 -116 -320 0 -6 60 -26 133
-44 951 -232 2091 -842 2772 -1483 195 -183 381 -389 372 -412 -3 -7 -386
-561 -852 -1230 -466 -670 -846 -1220 -844 -1221 2 -2 13 -6 24 -9 17 -5 137
162 860 1203 462 665 843 1209 847 1210 14 0 101 -173 197 -397 202 -467 310
-641 551 -885 l96 -97 -135 -188 c-74 -103 -278 -388 -454 -632 -175 -244
-315 -447 -310 -451 19 -17 439 -40 722 -40 l294 0 -5 -166 c-4 -133 -3 -163
7 -152 7 7 185 243 395 523 211 281 386 514 391 519 4 4 56 -11 116 -34 59
-24 275 -98 478 -165 430 -142 653 -229 761 -296 l33 -20 -1094 -1460 c-966
-1287 -1095 -1463 -1095 -1494 0 -19 2 -35 4 -35 2 0 505 668 1117 1485 l1113
1484 76 -41 c875 -480 1788 -1348 2422 -2303 55 -82 105 -151 111 -152 7 -1
302 240 657 535 l644 537 95 287 94 288 -81 163 c-261 522 -706 1154 -1221
1732 -158 178 -632 651 -822 821 -200 179 -415 360 -604 508 -82 65 -154 122
-159 126 -5 5 220 345 500 757 279 411 985 1450 1567 2308 582 858 1062 1563
1065 1567 4 3 118 36 253 71 l246 65 389 347 c214 191 402 360 418 375 l28 28
-41 368 c-23 203 -44 379 -46 390 -3 15 -294 228 -954 698 -522 372 -953 676
-957 675 -5 0 -146 -36 -314 -78z m280 12 c0 -9 -262 -1037 -265 -1041 -2 -2
-59 15 -127 38 -156 52 -358 105 -513 133 -66 12 -122 26 -124 30 -2 5 102
162 230 350 129 187 237 344 240 349 5 8 510 143 547 147 6 0 12 -2 12 -6z
m455 -288 c209 -148 609 -433 889 -634 l509 -366 -44 -12 c-24 -6 -267 -69
-539 -139 l-495 -126 -80 43 c-44 23 -118 65 -165 92 -132 78 -307 174 -527
292 -112 59 -203 113 -203 119 0 5 57 237 126 513 89 351 130 500 138 494 6
-4 182 -129 391 -276z m-1310 -640 c359 -92 794 -247 1071 -380 255 -123 488
-305 626 -489 115 -155 229 -418 278 -641 21 -99 46 -322 37 -331 -6 -6 -450
-125 -452 -121 -1 1 -14 38 -29 82 -15 44 -54 134 -85 200 -237 496 -603 811
-1061 911 -69 16 -125 19 -300 18 -118 0 -237 -5 -264 -11 l-48 -11 6 347 c4
190 9 372 12 405 l6 58 52 -6 c28 -3 96 -17 151 -31z m2759 -442 c3 -21 22
-182 42 -358 l37 -320 -74 -67 c-41 -36 -213 -190 -384 -342 l-310 -275 -7 67
c-44 407 -182 748 -401 989 -34 37 -57 64 -52 61 6 -3 260 59 565 137 305 78
560 143 567 144 6 0 14 -16 17 -36z m-10294 -2491 c1435 -619 2405 -1122 3196
-1658 430 -291 668 -471 1559 -1184 259 -207 632 -501 830 -655 198 -153 410
-317 470 -364 491 -381 965 -819 1400 -1295 50 -54 95 -104 100 -110 6 -6 69
-81 141 -166 423 -501 785 -1033 1012 -1485 l75 -149 -34 -29 c-29 -24 -983
-800 -1044 -848 -19 -16 -27 -8 -257 280 -776 970 -1295 1477 -1873 1831 -122
74 -332 183 -640 330 -458 219 -647 323 -940 515 -642 420 -1264 1023 -1734
1683 -117 164 -476 487 -854 768 -549 409 -1212 791 -1932 1111 -204 91 -715
296 -830 333 -38 13 -72 24 -74 26 -3 3 -4 2 622 721 398 457 439 502 460 494
12 -5 168 -72 347 -149z m-1295 -1166 c1267 -455 2440 -1132 3239 -1872 166
-153 237 -230 337 -370 233 -321 658 -785 989 -1079 483 -430 920 -710 1640
-1053 343 -163 483 -236 662 -344 488 -296 1030 -813 1669 -1593 110 -135 340
-426 389 -492 l23 -32 -149 -321 c-82 -176 -151 -320 -154 -320 -3 0 -30 40
-60 88 -69 108 -232 332 -350 482 -150 189 -334 394 -575 639 -525 533 -974
896 -1444 1166 -73 42 -140 83 -148 91 -8 8 -19 15 -24 15 -19 3 -26 6 -109
48 -150 77 -411 177 -707 271 -158 50 -324 103 -368 117 -381 122 -701 307
-1056 609 -57 49 -130 109 -162 133 -156 118 -311 372 -552 901 -64 140 -136
291 -160 335 -125 228 -517 613 -930 912 -671 486 -1527 897 -2274 1092 -62
17 -116 32 -119 35 -4 4 199 561 215 589 7 13 25 8 178 -47z m9982 -6225 l-72
-224 -580 -481 c-319 -265 -585 -485 -592 -489 -9 -6 185 423 248 546 12 24
1058 882 1065 874 2 -1 -30 -103 -69 -226z"/>
<path d="M34515 38736 c-342 -78 -360 -83 -367 -106 -7 -25 -48 -685 -48 -772
0 -27 2 -48 4 -48 10 0 801 273 808 279 4 3 4 168 0 366 -6 309 -9 360 -22
361 -8 1 -177 -35 -375 -80z m-95 -161 l0 -105 -112 82 -112 82 90 22 c145 35
134 42 134 -81z m-187 -5 l37 -25 0 -246 0 -247 -67 -86 c-66 -84 -68 -86 -71
-57 -2 17 6 175 17 351 12 177 21 328 21 336 0 16 0 16 63 -26z m443 -277 c-9
-9 -107 70 -102 83 3 8 27 41 53 74 l48 60 3 -107 c1 -58 1 -108 -2 -110z
m-283 -353 c-9 -8 -225 -81 -229 -77 -1 1 50 68 114 148 l117 145 3 -104 c1
-58 -1 -108 -5 -112z"/>
<path d="M37745 36654 c-176 -40 -439 -100 -584 -133 -144 -33 -265 -62 -268
-65 -4 -3 -23 -279 -44 -613 -20 -335 -40 -636 -42 -670 -3 -42 -1 -63 6 -63
6 0 149 47 317 105 168 58 460 159 650 224 190 65 345 123 345 127 -1 5 -4
245 -8 534 -9 585 -11 631 -36 629 -9 -1 -160 -35 -336 -75z m-415 -309 c0
-157 -2 -185 -14 -178 -28 16 -375 268 -375 273 -1 5 347 87 377 89 9 1 12
-42 12 -184z m-287 -19 l27 -20 0 -420 0 -421 -117 -147 c-65 -81 -118 -146
-119 -145 -1 1 15 277 37 612 21 336 38 616 39 623 0 8 20 -1 53 -24 28 -21
64 -47 80 -58z m685 -367 l-3 -90 -93 66 -92 67 33 42 c18 22 60 74 93 115
l59 75 3 -92 c1 -51 1 -133 0 -183z m-448 -476 l0 -188 -209 -72 -209 -71 206
259 c113 142 207 259 209 259 2 0 3 -84 3 -187z"/>
<path d="M40215 34218 c-192 -44 -352 -82 -354 -84 -5 -4 -50 -708 -51 -786
l0 -57 323 110 c177 61 361 124 410 141 l87 30 0 107 c0 59 -3 223 -7 364 l-6
257 -26 -1 c-14 -1 -183 -37 -376 -81z m-75 -159 l0 -110 -57 41 c-32 23 -84
61 -116 83 -33 24 -52 44 -45 46 21 7 192 49 206 50 9 1 12 -27 12 -110z
m-204 -1 l44 -31 0 -247 0 -247 -70 -88 -70 -88 0 39 c0 22 9 176 20 344 11
168 20 315 20 328 0 29 3 28 56 -10z m452 -233 l-3 -56 -52 38 c-29 21 -51 44
-48 50 2 7 26 40 52 73 l48 60 3 -55 c2 -30 2 -80 0 -110z m-278 -294 l0 -109
-120 -40 c-95 -32 -118 -37 -108 -23 22 30 223 281 226 281 1 0 2 -49 2 -109z"/>
<path d="M19230 35099 c-1070 -318 -3178 -848 -4217 -1060 l-63 -13 0 -118 c0
-65 2 -118 4 -118 3 0 98 20 213 45 114 25 224 48 243 51 54 8 64 11 83 19 10
4 21 5 24 1 3 -3 12 -1 18 4 9 8 23 4 49 -11 21 -12 45 -19 58 -16 12 4 40 -4
67 -17 30 -15 53 -21 66 -16 11 4 27 4 36 -1 9 -5 29 -8 45 -8 16 0 47 -3 69
-6 58 -8 118 -14 133 -14 6 0 21 -1 32 -1 11 0 26 0 33 0 6 0 35 0 62 0 28 1
70 1 95 0 69 -1 322 8 351 13 14 2 31 7 37 11 6 3 13 2 17 -4 4 -6 11 -7 17
-4 6 4 47 9 92 11 86 5 131 9 131 13 0 2 192 12 230 11 92 -2 114 -2 153 1 24
2 46 0 48 -4 3 -5 14 -3 25 2 13 8 25 7 40 0 14 -8 34 -8 67 -1 25 5 50 7 54
4 14 -8 86 -10 99 -3 6 4 8 13 5 19 -4 6 0 11 11 11 17 1 17 1 -1 15 -18 14
-18 15 5 34 13 11 29 21 34 21 6 0 2 5 -8 11 -18 10 -18 11 0 25 14 11 15 13
3 14 -12 0 -11 3 3 11 9 6 15 14 12 20 -4 5 1 9 9 9 19 0 22 20 4 20 -8 0 -5
7 6 15 11 8 16 15 10 15 -5 1 2 7 16 15 15 9 19 15 10 15 -12 1 -12 3 2 14 10
7 15 16 11 19 -3 4 1 7 10 7 9 0 17 4 17 9 0 5 10 12 23 16 13 4 17 8 9 12
-18 7 -4 23 21 23 18 0 19 2 7 11 -11 8 -12 12 -2 16 6 2 10 9 6 14 -3 5 2 9
11 9 11 0 15 5 11 15 -3 8 -1 15 5 15 6 0 21 8 34 19 18 13 21 21 12 30 -8 8
-8 11 1 11 19 0 59 40 41 41 -8 0 -3 5 11 10 18 7 21 12 11 18 -9 6 -7 10 9
14 12 3 19 10 15 16 -3 6 -1 11 4 11 6 0 11 6 11 13 0 7 189 65 512 157 334
95 517 151 527 163 9 9 19 17 23 17 14 0 48 34 48 47 0 8 14 16 30 20 17 3 30
9 30 14 0 17 45 54 62 51 12 -2 18 3 18 17 0 14 6 21 20 21 15 0 20 7 20 25 0
16 6 25 15 25 9 0 15 9 15 24 0 18 8 27 30 35 29 10 42 32 18 30 -7 -1 -87
-23 -178 -50z"/>
<path d="M27970 34562 c0 -116 1 -120 23 -126 134 -39 1257 -317 1577 -390
589 -135 1913 -416 1961 -416 6 0 8 50 7 117 l-3 117 -140 28 c-819 162 -1957
420 -2925 663 -250 63 -465 118 -477 121 -23 6 -23 6 -23 -114z"/>
<path d="M22800 34338 c-71 -29 -685 -242 -1040 -361 -1891 -634 -3977 -1198
-6165 -1667 -400 -86 -1364 -280 -1390 -280 -10 0 -15 10 -15 31 0 24 -4 29
-17 26 -105 -29 -598 -107 -672 -107 l-46 0 25 20 c14 11 54 29 90 40 36 11
180 57 320 103 255 83 255 84 258 113 l3 30 -288 -53 c-644 -119 -1382 -242
-1903 -317 l-295 -43 -3 -1671 c-1 -920 -3 -1672 -5 -1672 -1 0 -328 166 -727
369 l-725 370 -3 -300 -2 -300 -194 101 c-252 130 -267 131 -377 24 l-65 -65
-96 46 c-285 135 -580 193 -1028 202 -656 14 -1169 -99 -1765 -387 -822 -396
-1770 -1192 -2363 -1985 -636 -849 -1020 -1812 -1153 -2890 -31 -248 -39 -937
-14 -1187 98 -998 405 -1791 943 -2433 116 -138 352 -368 502 -489 91 -74 547
-383 1405 -954 699 -465 1315 -873 1370 -907 428 -264 908 -426 1500 -506 220
-30 810 -38 1050 -14 842 83 1668 447 2380 1051 l121 101 38 -111 c323 -931
723 -1828 1227 -2752 60 -110 99 -192 99 -210 0 -15 -25 -208 -55 -427 -31
-220 -55 -401 -53 -402 2 -2 117 6 256 17 140 11 255 18 257 16 1 -2 44 -421
94 -933 268 -2725 383 -3869 390 -3876 3 -3 87 0 186 8 99 7 364 26 590 41
l409 28 81 -85 c45 -48 100 -106 123 -131 l41 -46 -524 -752 -524 -753 -25
-107 c-14 -59 -259 -1067 -545 -2241 -287 -1174 -519 -2136 -517 -2138 2 -2
845 489 1873 1092 l1868 1095 499 665 c274 366 502 665 507 665 5 0 92 -69
193 -153 152 -126 455 -373 504 -410 11 -8 12 20 10 150 l-3 160 195 -157
c1032 -827 2141 -1597 3062 -2128 l176 -102 159 91 c538 311 1142 703 1706
1107 67 49 166 119 219 157 53 39 97 73 97 76 1 8 -1320 682 -1334 682 -5 -1
-102 -63 -215 -139 -113 -76 -301 -200 -418 -276 l-213 -137 -52 32 c-29 17
-218 142 -422 278 -1095 730 -2205 1594 -3251 2532 l-111 100 -999 509 c-549
280 -1002 512 -1005 516 -6 6 16 80 43 152 4 8 18 49 33 90 14 41 37 104 50
140 12 36 60 173 105 305 87 258 112 325 120 328 3 1 77 -74 165 -168 1334
-1416 2829 -2726 4355 -3817 480 -342 956 -662 976 -654 21 8 487 321 714 479
966 675 1941 1452 2860 2279 l195 176 5 -183 5 -183 245 225 c135 124 376 353
537 509 l291 284 84 -1 c46 0 233 -8 417 -17 219 -11 335 -14 337 -7 1 5 17
224 35 485 l32 475 36 41 c20 22 120 135 223 250 l187 209 133 -8 c524 -31
1082 116 1518 401 374 244 730 653 959 1102 41 80 75 146 76 148 1 1 58 -27
126 -62 l124 -64 90 126 c203 286 503 747 757 1162 528 865 1051 1886 1384
2701 52 127 63 164 52 170 -7 5 -232 120 -500 256 -267 137 -485 249 -484 250
1 1 177 -9 391 -23 290 -19 399 -23 426 -15 31 9 243 182 530 432 73 64 588
502 667 568 28 24 54 42 57 40 2 -3 72 -247 155 -544 93 -333 159 -549 172
-568 29 -41 88 -64 183 -71 265 -20 1239 -105 1755 -152 333 -31 639 -58 680
-61 l76 -5 524 314 c289 174 845 505 1235 737 391 232 724 437 741 455 17 18
34 48 37 67 33 179 606 5331 867 7779 33 311 87 824 121 1140 72 676 75 715
61 724 -32 20 -2695 281 -2782 273 -25 -2 -58 -12 -74 -22 -21 -14 -789 -959
-1088 -1338 -14 -18 -18 -19 -22 -7 -8 20 -304 1021 -367 1240 -28 96 -61 191
-74 211 -29 45 -74 66 -155 74 -76 7 -1650 126 -1982 150 -250 18 -275 16
-320 -33 -21 -22 -987 -1620 -1097 -1814 -18 -32 -36 -58 -40 -58 -4 0 -60
251 -124 558 l-118 557 1 1762 0 1763 -22 4 c-13 3 -131 21 -263 41 -724 109
-1761 297 -2680 486 -318 66 -868 184 -907 195 -16 5 -18 20 -18 139 0 131 -1
135 -22 140 -13 3 -171 39 -353 81 -862 197 -2344 569 -2787 699 l-48 14 0
-135 c0 -94 -3 -134 -12 -134 -16 0 -212 54 -623 172 -1006 288 -1945 587
-2877 917 -142 50 -265 91 -275 90 -10 0 -29 -5 -43 -11z m-714 -16828 c79
-261 144 -481 144 -487 0 -10 -276 -13 -1348 -13 l-1349 0 157 468 156 467 69
6 c39 4 367 12 730 18 363 7 698 13 745 15 47 1 190 2 319 2 l234 -1 143 -475z
m3059 459 c297 -6 619 -14 715 -18 l174 -6 119 -335 c65 -184 140 -395 166
-467 l48 -133 -1394 0 c-1224 0 -1394 2 -1389 15 3 8 67 191 142 407 75 216
150 431 167 477 l30 84 341 -7 c188 -3 584 -11 881 -17z m1698 -49 c590 -23
1532 -66 1752 -80 418 -27 904 -147 1213 -300 305 -151 509 -319 705 -577 8
-10 -392 -13 -1992 -13 l-2001 0 11 24 c12 26 7 44 -61 226 -30 81 -50 135
-157 430 -79 219 -96 277 -90 294 8 20 -9 21 620 -4z m-9143 -75 c710 -34
1265 -248 1644 -634 l70 -70 -24 -70 -23 -70 25 -70 25 -71 -2575 0 c-2450 0
-2574 1 -2561 18 8 9 48 57 89 105 41 48 91 107 110 130 19 23 130 152 245
286 116 134 221 258 235 274 l26 30 404 28 c435 30 1201 78 1710 108 173 10
353 17 400 15 47 -2 137 -6 200 -9z m15157 -304 c57 -4 106 -10 109 -14 14
-14 -270 -670 -486 -1119 -219 -457 -625 -1218 -640 -1201 -4 4 -21 44 -39 88
-17 44 -49 116 -69 159 l-37 79 108 201 c286 532 608 1210 803 1693 l49 123
50 -1 c28 0 96 -4 152 -8z m-10998 -633 c82 -253 631 -2103 910 -3073 45 -154
84 -287 87 -295 3 -8 109 291 234 665 251 749 298 886 520 1530 228 659 427
1225 433 1231 8 9 2153 -33 2289 -44 l76 -7 -60 -145 c-883 -2141 -1683 -4203
-2428 -6263 -82 -225 -150 -410 -152 -412 -1 -2 -441 -5 -977 -6 l-975 -3 -37
115 c-21 63 -128 398 -239 744 -548 1713 -1282 3863 -1939 5679 -56 153 -101
284 -101 290 0 14 110 18 1080 36 578 11 746 14 1062 18 l196 2 21 -62z m5321
-13 c927 -34 2107 -90 2245 -106 294 -35 653 -114 886 -195 530 -185 890 -455
1174 -883 382 -577 531 -1377 383 -2071 -125 -590 -444 -1166 -879 -1585 -394
-379 -912 -603 -1494 -645 -114 -8 -213 -6 -529 11 -213 12 -391 17 -395 12
-4 -4 -30 -340 -57 -745 l-49 -738 -45 0 c-25 0 -175 7 -335 15 -337 16 -937
41 -1415 58 l-335 12 2 75 c1 41 46 1127 99 2412 54 1286 96 2339 93 2342 -2
2 -113 7 -246 11 -134 4 -243 10 -243 13 0 10 559 1974 574 2017 2 6 35 9 77
7 41 -1 261 -9 489 -17z m-9902 -100 c698 -67 1214 -273 1602 -639 451 -426
748 -991 834 -1586 53 -368 11 -856 -109 -1269 -121 -413 -388 -895 -649
-1168 -281 -295 -658 -505 -1099 -612 -188 -46 -304 -59 -707 -81 -205 -11
-376 -22 -379 -25 -3 -3 18 -333 47 -733 29 -400 53 -734 52 -742 0 -13 -70
-20 -477 -43 -394 -23 -1042 -66 -1555 -103 -86 -6 -98 -5 -98 9 0 9 -106
1083 -235 2387 -129 1304 -235 2380 -235 2391 0 24 -24 24 -292 3 -110 -9
-201 -14 -203 -12 -8 8 283 2059 293 2070 8 7 751 60 1542 108 272 17 635 39
805 50 342 21 604 19 863 -5z m-615 -7861 l377 -381 -294 -410 -295 -410 -115
-438 c-64 -242 -114 -440 -113 -441 2 -2 180 91 397 207 l395 209 285 380
c157 209 288 380 291 380 4 0 69 -57 145 -128 192 -176 555 -498 761 -675
l172 -148 -500 -667 -500 -667 -1812 -1062 c-997 -584 -1813 -1056 -1815
-1050 -1 7 236 990 527 2184 l530 2173 502 722 c276 398 509 731 517 741 15
17 20 13 92 -60 42 -43 246 -249 453 -459z m2608 -2031 c13 -16 12 -17 -3 -4
-17 13 -22 21 -14 21 2 0 10 -8 17 -17z m110 -90 c13 -16 12 -17 -3 -4 -17 13
-22 21 -14 21 2 0 10 -8 17 -17z"/>
<path d="M28796 14648 c-5 -49 -65 -932 -78 -1143 l-3 -40 230 -14 c258 -15
322 -10 410 34 197 96 337 366 338 650 1 130 -16 203 -72 322 -55 115 -128
182 -236 215 -30 9 -419 37 -527 38 l-56 0 -6 -62z"/>
<path d="M16767 14705 c-120 -7 -221 -15 -224 -18 -6 -6 81 -1235 88 -1241 10
-10 489 24 532 38 110 33 198 114 265 244 61 116 85 222 85 367 -1 282 -131
524 -322 599 -61 24 -169 27 -424 11z"/>
<path d="M31500 12144 c-44 -62 -363 -471 -494 -634 -780 -970 -1688 -1961
-2658 -2898 l-378 -365 0 -165 0 -165 26 24 26 24 24 -30 c13 -16 131 -172
262 -346 l237 -317 395 -210 c217 -116 396 -208 397 -204 2 4 -48 202 -111
440 l-114 433 -259 362 c-143 199 -263 367 -267 374 -10 18 900 925 912 910
46 -58 958 -1378 965 -1397 12 -34 1065 -4354 1062 -4358 -2 -2 -819 475
-1817 1060 l-1814 1062 -474 632 c-421 562 -476 632 -493 623 -10 -6 -16 -17
-13 -24 2 -7 215 -295 473 -638 l468 -625 1869 -1096 c1028 -603 1871 -1094
1873 -1092 3 2 -241 1013 -542 2246 l-546 2242 -489 702 c-269 387 -490 708
-492 713 -2 5 81 99 183 209 623 667 1203 1346 1727 2021 l102 131 -2 202 -3
202 -35 -48z"/>
</g>
</svg>
